<?xml version="1.0" encoding="UTF-8" standalone="no"?>
<svg
   width="440"
   height="120"
   viewBox="0 0 440 120"
   role="img"
   aria-label="Layerform System Ltd primary logo"
   version="1.1"
   id="svg4"
   sodipodi:docname="primary-horizontal-full-colour.svg"
   xmlns:inkscape="http://www.inkscape.org/namespaces/inkscape"
   xmlns:sodipodi="http://sodipodi.sourceforge.net/DTD/sodipodi-0.dtd"
   xmlns="http://www.w3.org/2000/svg"
   xmlns:svg="http://www.w3.org/2000/svg">
  <defs
     id="defs4" />
  <sodipodi:namedview
     id="namedview4"
     pagecolor="#ffffff"
     bordercolor="#000000"
     borderopacity="0.25"
     inkscape:showpageshadow="2"
     inkscape:pageopacity="0.0"
     inkscape:pagecheckerboard="0"
     inkscape:deskcolor="#d1d1d1" />
  <title
     id="title1">Layerform System Ltd primary logo</title>
  <desc
     id="desc1">Primary horizontal Layerform logo with operations stack mark.</desc>
  <g
     transform="translate(18 31) scale(0.92)"
     id="g3">
    <rect
       x="8"
       y="14"
       width="44"
       height="10"
       rx="3"
       fill="#0F172A"
       opacity="1"
       id="rect1" />
    <rect
       x="8"
       y="27"
       width="38"
       height="10"
       rx="3"
       fill="#2563EB"
       opacity="1"
       id="rect2" />
    <rect
       x="8"
       y="40"
       width="44"
       height="10"
       rx="3"
       fill="#0F172A"
       opacity="0.86"
       id="rect3" />
  </g>
  <path
     d="M 90.276367,58 H 110.47656 V 52.585937 H 96.592773 V 27.443359 h -6.316406 z m 28.959373,0.369141 c 3.32227,0 5.18848,-1.3125 6.33692,-3.424805 h 0.082 V 58 h 5.90625 V 43.316406 c 0,-4.634765 -3.4043,-7.423828 -9.33106,-7.423828 -5.94726,0 -9.47461,2.830078 -9.74121,7.300781 h 5.68067 c 0.14355,-1.661132 1.62011,-2.80957 3.87597,-2.80957 2.21485,0 3.54785,1.107422 3.54785,2.707031 v 0.143555 c 0,1.394531 -1.39453,1.579102 -5.35253,1.96875 -4.51172,0.410156 -8.44922,1.804687 -8.44922,6.685547 0,4.327148 3.11718,6.480469 7.44433,6.480469 z m 1.68164,-4.204102 c -2.03027,0 -3.34277,-0.902344 -3.34277,-2.44043 0,-1.722656 1.64062,-2.522461 3.71191,-2.830078 1.94825,-0.307617 3.65039,-0.594726 4.34766,-0.984375 v 2.173828 c 0,2.337891 -1.80469,4.081055 -4.7168,4.081055 z m 13.61953,12.407227 h 3.99903 c 3.36328,0 5.45508,-1.620118 6.8291,-5.229493 l 9.53613,-24.999023 h -6.27539 l -3.65039,10.705078 c -0.51269,1.538086 -0.98437,3.117188 -1.45605,4.675781 -0.45118,-1.558593 -0.94336,-3.117187 -1.43555,-4.675781 L 138.45391,36.34375 h -6.33692 l 8.32617,21.574219 -0.59472,1.579101 c -0.57422,1.661133 -1.12793,2.296875 -2.56348,2.296875 h -2.74805 z m 30.94864,-8.080079 c 5.25,0 9.43359,-2.99414 10.2334,-7.300781 h -5.5166 c -0.55371,1.681641 -2.17383,2.768555 -4.53223,2.768555 -3.17871,0 -5.02441,-2.071289 -5.12695,-5.270508 h 15.40136 v -1.620117 c 0,-6.603516 -4.28613,-11.217774 -10.66406,-11.217774 -6.21387,0 -10.62305,4.737305 -10.62305,11.340821 0,6.583008 4.26563,11.299804 10.82813,11.299804 z m -4.90137,-13.658203 c 0.32813,-2.707031 2.11231,-4.388672 4.81934,-4.388672 2.72754,0 4.53223,1.681641 4.83984,4.388672 z M 178.28477,58 h 6.0498 V 46.269531 c 0,-3.260742 1.8252,-4.983398 4.30664,-4.983398 1.02539,0 2.15332,0.08203 2.60449,0.102539 v -5.147461 c -0.49218,-0.02051 -1.08691,-0.04102 -1.78418,-0.04102 -2.85058,0 -4.49121,1.230469 -5.29101,3.834961 h -0.0615 V 36.34375 h -5.82422 z m 28.22109,-21.65625 h -4.42969 v -1.78418 c 0,-1.722656 0.63574,-2.378906 2.37891,-2.378906 h 2.05078 v -4.737305 h -3.42481 c -4.67578,0 -7.03418,2.050782 -7.03418,6.090821 v 2.80957 h -3.91699 v 4.737305 h 3.91699 V 58 h 6.0293 V 41.081055 h 4.42969 z m 11.69179,22.148437 c 6.58301,0 11.0127,-4.511718 11.0127,-11.299804 0,-6.788086 -4.42969,-11.340821 -11.0127,-11.340821 -6.5625,0 -10.99218,4.552735 -10.99218,11.340821 0,6.788086 4.42968,11.299804 10.99218,11.299804 z m 0,-4.901367 c -2.93261,0 -4.90136,-2.378906 -4.90136,-6.398437 0,-4.040039 1.98926,-6.439453 4.90136,-6.439453 2.93262,0 4.92188,2.399414 4.92188,6.439453 0,4.019531 -1.96875,6.398437 -4.92188,6.398437 z M 231.63261,58 h 6.04981 V 46.269531 c 0,-3.260742 1.82519,-4.983398 4.30664,-4.983398 1.02539,0 2.15332,0.08203 2.60449,0.102539 v -5.147461 c -0.49219,-0.02051 -1.08691,-0.04102 -1.78418,-0.04102 -2.85058,0 -4.49121,1.230469 -5.29101,3.834961 h -0.0615 V 36.34375 h -5.82422 z m 15.0961,0 h 6.04981 V 45.223633 c 0,-2.789063 1.72265,-4.347656 3.87598,-4.347656 2.1123,0 3.58886,1.456054 3.58886,3.711914 V 58 h 5.82422 V 44.957031 c 0,-2.419922 1.45606,-4.081054 3.79395,-4.081054 2.07129,0 3.67089,1.271484 3.67089,3.875976 V 58 h 6.0293 V 43.644531 c 0,-4.96289 -3.09668,-7.751953 -7.25976,-7.751953 -3.1377,0 -5.80371,1.579102 -6.93164,4.224609 -0.90235,-2.645507 -3.34278,-4.224609 -6.25489,-4.224609 -2.74804,0 -5.27051,1.415039 -6.5625,4.347656 V 36.34375 h -5.82422 z"
     id="text3"
     style="font-weight:650;font-size:42px;font-family:'Inter Display', Inter, Arial, sans-serif;letter-spacing:-0.9;fill:#0f172a"
     aria-label="Layerform" />
  <path
     d="m 93.896484,90.146484 c 2.050782,0 3.234375,-1.078125 3.234375,-2.560547 0,-1.576171 -1.40039,-2.173828 -2.513672,-2.460937 l -0.849609,-0.222656 c -0.667969,-0.175782 -1.570312,-0.486328 -1.570312,-1.3125 0,-0.738282 0.667968,-1.277344 1.728515,-1.277344 0.990235,0 1.699219,0.457031 1.78711,1.253906 h 1.300781 c -0.04102,-1.388672 -1.265625,-2.414062 -3.058594,-2.414062 -1.757812,0 -3.09375,1.001953 -3.09375,2.513672 0,1.195312 0.84375,1.927734 2.273438,2.308593 l 1.019531,0.28125 c 0.9375,0.251953 1.658203,0.550782 1.658203,1.3125 0,0.84375 -0.814453,1.40625 -1.921875,1.40625 -1.007813,0 -1.851563,-0.445312 -1.927734,-1.40039 h -1.341797 c 0.08203,1.59375 1.3125,2.572265 3.27539,2.572265 z M 103.81758,90 h 1.33594 v -3.474609 l 3.20507,-5.25586 h -1.55273 l -1.62305,2.783203 c -0.25781,0.439453 -0.46875,0.832032 -0.68554,1.359375 -0.2168,-0.515625 -0.42774,-0.902343 -0.69727,-1.359375 l -1.64062,-2.783203 h -1.5586 l 3.2168,5.25586 z m 11.28633,0.146484 c 2.05078,0 3.23437,-1.078125 3.23437,-2.560547 0,-1.576171 -1.40039,-2.173828 -2.51367,-2.460937 L 114.975,84.902344 c -0.66797,-0.175782 -1.57031,-0.486328 -1.57031,-1.3125 0,-0.738282 0.66797,-1.277344 1.72851,-1.277344 0.99024,0 1.69922,0.457031 1.78711,1.253906 h 1.30078 c -0.041,-1.388672 -1.26562,-2.414062 -3.05859,-2.414062 -1.75781,0 -3.09375,1.001953 -3.09375,2.513672 0,1.195312 0.84375,1.927734 2.27344,2.308593 l 1.01953,0.28125 c 0.9375,0.251953 1.6582,0.550782 1.6582,1.3125 0,0.84375 -0.81445,1.40625 -1.92187,1.40625 -1.00782,0 -1.85157,-0.445312 -1.92774,-1.40039 h -1.34179 c 0.082,1.59375 1.3125,2.572265 3.27539,2.572265 z m 6.8625,-7.728515 h 2.72461 V 90 h 1.34179 v -7.582031 h 2.71289 v -1.148438 h -6.77929 z M 132.78984,90 h 5.53125 v -1.148438 h -4.19531 v -2.689453 h 3.86719 v -1.142578 h -3.86719 v -2.601562 h 4.16016 v -1.148438 h -5.4961 z m 9.78633,0 h 1.30078 v -4.699219 c 0,-0.667969 -0.0293,-1.787109 -0.0527,-2.701172 0.33398,1.078125 0.67969,2.173828 0.8789,2.701172 L 146.51367,90 h 1.14258 l 1.78711,-4.699219 c 0.19922,-0.544922 0.5625,-1.669922 0.87305,-2.730469 -0.0176,0.972657 -0.0469,2.085938 -0.0469,2.730469 V 90 h 1.33008 v -8.730469 h -1.98047 l -1.875,5.009766 c -0.16992,0.480469 -0.44531,1.453125 -0.65039,2.232422 -0.19922,-0.796875 -0.47461,-1.763672 -0.64453,-2.232422 l -1.9043,-5.009766 h -1.96875 z m 19.25039,0 h 5.29102 v -1.148438 h -3.95508 v -7.582031 h -1.33594 z m 7.76485,-7.582031 h 2.72461 V 90 h 1.34179 v -7.582031 h 2.71289 v -1.148438 h -6.77929 z M 183.25664,90 c 2.65429,0 4.19531,-1.646484 4.19531,-4.376953 0,-2.712891 -1.54102,-4.353516 -4.11328,-4.353516 h -2.92383 V 90 Z m -1.50586,-1.171875 v -6.386719 h 1.5 c 1.9043,0 2.88867,1.13086 2.88867,3.181641 0,2.068359 -0.98437,3.205078 -2.95898,3.205078 z"
     id="text4"
     style="font-weight:500;font-size:12px;font-family:Inter, Arial, sans-serif;letter-spacing:2.55;fill:#64748b"
     aria-label="SYSTEM LTD" />
</svg>
